<?xml version="1.0" encoding="UTF-8" standalone="no"?>
<!-- Created with Inkscape (http://www.inkscape.org/) -->

<svg
   width="512"
   height="512"
   viewBox="0 0 512 512"
   version="1.1"
   id="svg1"
   inkscape:version="1.4.2 (f4327f4, 2025-05-13)"
   sodipodi:docname="curcle.svg"
   xmlns:inkscape="http://www.inkscape.org/namespaces/inkscape"
   xmlns:sodipodi="http://sodipodi.sourceforge.net/DTD/sodipodi-0.dtd"
   xmlns="http://www.w3.org/2000/svg"
   xmlns:svg="http://www.w3.org/2000/svg">
  <sodipodi:namedview
     id="namedview1"
     pagecolor="#ffffff"
     bordercolor="#000000"
     borderopacity="0.25"
     inkscape:showpageshadow="2"
     inkscape:pageopacity="0.0"
     inkscape:pagecheckerboard="0"
     inkscape:deskcolor="#d1d1d1"
     inkscape:document-units="px"
     inkscape:zoom="2.3730469"
     inkscape:cx="255.7893"
     inkscape:cy="256"
     inkscape:window-width="2560"
     inkscape:window-height="1417"
     inkscape:window-x="-8"
     inkscape:window-y="-8"
     inkscape:window-maximized="1"
     inkscape:current-layer="layer1" />
  <defs
     id="defs1" />
  <g
     inkscape:label="Layer 1"
     inkscape:groupmode="layer"
     id="layer1">
    <path
       id="path1"
       style="fill:#333333;stroke-width:1.79395"
       d="m 245.74976,0.17568703 c -6.35107,0.33021054 -12.69257,0.76800178 -19.00841,1.50048887 -6.89532,0.7908641 -13.74961,1.8860012 -20.55593,3.2091453 -6.80687,1.3561635 -13.54721,3.0028757 -20.22134,4.8708822 -6.67079,1.9086696 -13.25288,4.0898766 -19.7498,6.4886516 -7.15354,2.712135 -14.19089,5.706417 -21.07852,8.992074 -6.19317,3.006654 -12.2749,6.218558 -18.21146,9.668609 -5.35956,3.15344 -10.59582,6.486016 -15.73276,9.96341 -6.20776,4.299345 -12.240724,8.830597 -18.061975,13.602053 -5.379628,4.482962 -10.608332,9.132216 -15.615895,13.995612 -5.083419,4.988023 -10.006444,10.129526 -14.650603,15.49793 -5.568043,6.409381 -10.82733,13.065747 -15.694627,19.981207 -3.176534,4.42974 -6.175534,8.98271 -9.020623,13.61462 -3.67037,5.95507 -7.120039,12.03934 -10.25903,18.26752 -3.839866,7.48688 -7.27058,15.16365 -10.318331,22.97836 -2.614736,6.61131 -4.88539,13.34546 -6.928438,20.13944 -2.0253209,6.75145 -3.7209355,13.59028 -5.1951894,20.47173 -1.4607383,6.9543 -2.588639,13.96778 -3.5141523,21.00572 -0.8912847,7.55821 -1.52166883,15.14565 -1.79011458,22.74833 -0.21678212,7.15974 -0.20691091,14.32799 0.17324989,21.48196 0.42026832,8.49847 1.24924889,16.97793 2.53406349,25.39669 1.0429789,7.20513 2.4869599,14.35267 4.1521734,21.4484 1.6406361,6.91199 3.6258495,13.74409 5.8064165,20.51689 2.181923,6.57847 4.635753,13.06911 7.297354,19.48301 2.692644,6.32246 5.633021,12.54304 8.778935,18.66999 3.196625,6.08448 6.622449,12.05407 10.252089,17.91124 3.645299,5.75681 7.507178,11.38313 11.563771,16.88136 4.578247,6.09959 9.406589,12.02739 14.497572,17.74101 4.722231,5.22661 9.616248,10.3119 14.753272,15.16507 5.131493,4.82737 10.42695,9.49835 15.958438,13.90079 5.457664,4.36102 11.077114,8.54073 16.904134,12.43748 5.6404,3.81104 11.43706,7.41244 17.39163,10.754 5.98126,3.37744 12.10237,6.53042 18.36174,9.40573 7.55454,3.49499 15.2861,6.63864 23.17791,9.36408 5.21922,1.84479 10.52084,3.49094 15.86822,4.95843 7.96858,2.2251 16.05645,4.05355 24.22436,5.4647 5.3261,0.95329 10.69578,1.71704 16.08006,2.29439 8.22906,0.91356 16.50531,1.43718 24.78951,1.52001 5.47012,0.0972 10.94997,-0.0216 16.41212,-0.31385 6.74969,-0.34035 13.48622,-0.94501 20.18084,-1.83361 6.88062,-0.91031 13.72839,-2.06776 20.50092,-3.5464 8.09821,-1.73903 16.10962,-3.85372 23.9759,-6.39216 6.85703,-2.14336 13.58711,-4.65276 20.21048,-7.38845 6.53366,-2.67854 12.92013,-5.6815 19.18852,-8.89052 6.1742,-3.16706 12.19165,-6.61119 18.07335,-10.25521 5.84024,-3.63088 11.5148,-7.50526 17.03237,-11.57521 5.57945,-4.12287 10.96564,-8.48337 16.18262,-13.02259 5.26909,-4.60201 10.31965,-9.42965 15.19627,-14.41414 4.9148,-5.06276 9.58363,-10.33891 14.08389,-15.74462 4.85873,-5.96978 9.48313,-12.11653 13.8122,-18.45089 3.91627,-5.79924 7.64515,-11.71642 11.07707,-17.79175 3.46315,-6.14747 6.72301,-12.40279 9.6564,-18.79942 2.95484,-6.40548 5.68006,-12.91175 8.07401,-19.52928 2.92607,-7.94346 5.42937,-16.0276 7.53078,-24.20742 1.79629,-6.87583 3.24276,-13.83363 4.45316,-20.82616 1.20726,-7.00313 2.06739,-14.05715 2.70765,-21.12843 0.59161,-7.02104 0.87819,-14.06155 0.94399,-21.10524 -0.0234,-7.66938 -0.31451,-15.33993 -0.98194,-22.9832 -0.6482,-7.13143 -1.52482,-14.24624 -2.77106,-21.3047 -1.43561,-8.3282 -3.27111,-16.59279 -5.55063,-24.74631 -1.86758,-6.85281 -4.08031,-13.61761 -6.53286,-20.29833 -2.42207,-6.6166 -5.16779,-13.12196 -8.12871,-19.53363 -2.94217,-6.33803 -6.18709,-12.54243 -9.6296,-18.64383 -3.43249,-6.02037 -7.13588,-11.89431 -11.02825,-17.65144 C 463.48179,105.92743 459.36833,100.4067 455.058,95.027667 450.20658,89.070329 445.10675,83.29805 439.7485,77.754533 434.86402,72.761907 429.80804,67.924255 424.53353,63.311412 419.30792,58.76459 413.9148,54.394919 408.32771,50.263096 402.80144,46.186715 397.11906,42.30483 391.27014,38.667331 385.43206,35.049846 379.45948,31.630126 373.33504,28.479656 367.0036,25.242482 360.55799,22.204039 353.95975,19.500481 346.26802,16.307169 338.41363,13.473783 330.41445,11.072512 325.12694,9.4411231 319.76685,8.0075866 314.36796,6.7576331 306.31444,4.8559219 298.15889,3.3558548 289.9417,2.2757776 284.64203,1.5446084 279.30641,1.0131541 273.96686,0.64199893 265.76767,0.06376585 257.53843,-0.1457371 249.32026,0.1033398 c -1.19018,0.0240747 -2.38037,0.0483252 -3.57054,0.0724 z" />
  </g>
</svg>
